<svg width="512" height="512" viewBox="0 0 512 512" fill="none" xmlns="http://www.w3.org/2000/svg">
<path d="M256 85.333V21.333L170.667 106.666L256 192V128C285.535 128 314.407 136.758 338.965 153.167C363.523 169.576 382.663 192.899 393.966 220.186C405.269 247.473 408.226 277.499 402.464 306.467C396.702 335.434 382.479 362.043 361.595 382.928C340.71 403.812 314.101 418.035 285.133 423.797C256.166 429.559 226.14 426.602 198.853 415.299C171.566 403.996 148.243 384.856 131.834 360.298C115.425 335.74 106.667 306.868 106.667 277.333H64C64 315.307 75.2606 352.428 96.3578 384.002C117.455 415.577 147.441 440.186 182.525 454.718C217.608 469.25 256.213 473.052 293.457 465.644C330.702 458.235 364.913 439.949 391.764 413.098C418.616 386.246 436.902 352.035 444.311 314.79C451.719 277.546 447.917 238.941 433.385 203.858C418.853 168.774 394.244 138.788 362.669 117.691C331.095 96.5936 293.974 85.333 256 85.333Z" fill="#5a2a27"/>
</svg>
